G75*
%MOIN*%
%OFA0B0*%
%FSLAX24Y24*%
%IPPOS*%
%LPD*%
%AMOC8*
5,1,8,0,0,1.08239X$1,22.5*
%
%ADD10C,0.0000*%
%ADD11C,0.0030*%
%ADD12C,0.0080*%
%ADD13C,0.0060*%
%ADD14C,0.0050*%
D10*
X000100Y000100D02*
X000100Y011785D01*
X009785Y011785D01*
X009785Y000100D01*
X000100Y000100D01*
D11*
X001729Y001958D02*
X001976Y001958D01*
X001853Y001958D02*
X001853Y002328D01*
X001729Y002204D01*
X001010Y003237D02*
X001010Y003360D01*
X001010Y003299D02*
X000640Y003299D01*
X000640Y003360D02*
X000640Y003237D01*
X000640Y003483D02*
X001010Y003729D01*
X000640Y003729D01*
X000640Y003483D02*
X001010Y003483D01*
X001676Y003934D02*
X001676Y004304D01*
X001861Y004304D01*
X001923Y004242D01*
X001923Y004119D01*
X001861Y004057D01*
X001676Y004057D01*
X001799Y004057D02*
X001923Y003934D01*
X002044Y003996D02*
X002106Y003934D01*
X002229Y003934D01*
X002291Y003996D01*
X002291Y004119D01*
X002229Y004181D01*
X002168Y004181D01*
X002044Y004119D01*
X002044Y004304D01*
X002291Y004304D01*
X001976Y004713D02*
X001729Y004713D01*
X001976Y004960D01*
X001976Y005022D01*
X001914Y005084D01*
X001791Y005084D01*
X001729Y005022D01*
X001470Y006682D02*
X001285Y006682D01*
X001285Y007052D01*
X001470Y007052D01*
X001532Y006991D01*
X001532Y006744D01*
X001470Y006682D01*
X001163Y006682D02*
X001163Y007052D01*
X000916Y007052D02*
X001163Y006682D01*
X000916Y006682D02*
X000916Y007052D01*
X000795Y006991D02*
X000733Y007052D01*
X000610Y007052D01*
X000548Y006991D01*
X000548Y006744D01*
X000610Y006682D01*
X000733Y006682D01*
X000795Y006744D01*
X000795Y006867D01*
X000672Y006867D01*
X002321Y007600D02*
X002383Y007538D01*
X002506Y007538D01*
X002568Y007600D01*
X002689Y007538D02*
X002936Y007538D01*
X002813Y007538D02*
X002813Y007908D01*
X002689Y007785D01*
X002568Y007846D02*
X002506Y007908D01*
X002383Y007908D01*
X002321Y007846D01*
X002321Y007600D01*
X003058Y007723D02*
X003305Y007723D01*
X003243Y007538D02*
X003243Y007908D01*
X003058Y007723D01*
X003259Y007159D02*
X003198Y007097D01*
X003198Y006850D01*
X003259Y006788D01*
X003383Y006788D01*
X003445Y006850D01*
X003566Y006788D02*
X003813Y006788D01*
X003689Y006788D02*
X003689Y007159D01*
X003566Y007035D01*
X003445Y007097D02*
X003383Y007159D01*
X003259Y007159D01*
X003934Y007097D02*
X003934Y007035D01*
X003996Y006973D01*
X004119Y006973D01*
X004181Y006912D01*
X004181Y006850D01*
X004119Y006788D01*
X003996Y006788D01*
X003934Y006850D01*
X003934Y006912D01*
X003996Y006973D01*
X004119Y006973D02*
X004181Y007035D01*
X004181Y007097D01*
X004119Y007159D01*
X003996Y007159D01*
X003934Y007097D01*
X005318Y005485D02*
X005503Y005485D01*
X005565Y005424D01*
X005565Y005300D01*
X005503Y005238D01*
X005318Y005238D01*
X005318Y005115D02*
X005318Y005485D01*
X005441Y005238D02*
X005565Y005115D01*
X005686Y005115D02*
X005933Y005115D01*
X006054Y005177D02*
X006116Y005115D01*
X006240Y005115D01*
X006301Y005177D01*
X006301Y005238D01*
X006240Y005300D01*
X006178Y005300D01*
X006240Y005300D02*
X006301Y005362D01*
X006301Y005424D01*
X006240Y005485D01*
X006116Y005485D01*
X006054Y005424D01*
X005810Y005485D02*
X005810Y005115D01*
X005686Y005362D02*
X005810Y005485D01*
X006643Y006358D02*
X006643Y006605D01*
X006704Y006666D01*
X006828Y006666D01*
X006889Y006605D01*
X007011Y006543D02*
X007134Y006666D01*
X007134Y006296D01*
X007011Y006296D02*
X007258Y006296D01*
X007379Y006358D02*
X007441Y006296D01*
X007564Y006296D01*
X007626Y006358D01*
X007626Y006605D01*
X007564Y006666D01*
X007441Y006666D01*
X007379Y006605D01*
X007379Y006543D01*
X007441Y006481D01*
X007626Y006481D01*
X006889Y006358D02*
X006828Y006296D01*
X006704Y006296D01*
X006643Y006358D01*
X006626Y007538D02*
X006873Y007538D01*
X006750Y007538D02*
X006750Y007908D01*
X006626Y007785D01*
X006505Y007846D02*
X006443Y007908D01*
X006320Y007908D01*
X006258Y007846D01*
X006258Y007600D01*
X006320Y007538D01*
X006443Y007538D01*
X006505Y007600D01*
X006995Y007600D02*
X007056Y007538D01*
X007180Y007538D01*
X007242Y007600D01*
X007242Y007723D01*
X007180Y007785D01*
X007118Y007785D01*
X006995Y007723D01*
X006995Y007908D01*
X007242Y007908D01*
X008415Y007210D02*
X008415Y007025D01*
X008786Y007025D01*
X008786Y007210D01*
X008724Y007272D01*
X008477Y007272D01*
X008415Y007210D01*
X008415Y006903D02*
X008786Y006903D01*
X008415Y006657D01*
X008786Y006657D01*
X008724Y006535D02*
X008601Y006535D01*
X008601Y006412D01*
X008724Y006535D02*
X008786Y006473D01*
X008786Y006350D01*
X008724Y006288D01*
X008477Y006288D01*
X008415Y006350D01*
X008415Y006473D01*
X008477Y006535D01*
X007845Y004881D02*
X007722Y004881D01*
X007660Y004819D01*
X007845Y004881D02*
X007907Y004819D01*
X007907Y004757D01*
X007660Y004510D01*
X007907Y004510D01*
X007893Y003804D02*
X007832Y003742D01*
X007832Y003496D01*
X007893Y003434D01*
X008017Y003434D01*
X008078Y003496D01*
X008078Y003742D01*
X008017Y003804D01*
X007893Y003804D01*
X008200Y003804D02*
X008200Y003496D01*
X008262Y003434D01*
X008385Y003434D01*
X008447Y003496D01*
X008447Y003804D01*
X008568Y003804D02*
X008815Y003804D01*
X008692Y003804D02*
X008692Y003434D01*
X007784Y002715D02*
X007784Y002345D01*
X007907Y002345D02*
X007660Y002345D01*
X007660Y002592D02*
X007784Y002715D01*
X006809Y003184D02*
X006439Y003184D01*
X006439Y003369D01*
X006501Y003431D01*
X006624Y003431D01*
X006686Y003369D01*
X006686Y003184D01*
X006686Y003307D02*
X006809Y003431D01*
X006748Y003552D02*
X006624Y003552D01*
X006624Y003737D01*
X006686Y003799D01*
X006748Y003799D01*
X006809Y003737D01*
X006809Y003614D01*
X006748Y003552D01*
X006624Y003552D02*
X006501Y003676D01*
X006439Y003799D01*
X005046Y003886D02*
X004984Y003824D01*
X004922Y003824D01*
X004860Y003886D01*
X004860Y004010D01*
X004922Y004071D01*
X004984Y004071D01*
X005046Y004010D01*
X005046Y003886D01*
X005046Y003703D02*
X005046Y003456D01*
X005046Y003335D02*
X004799Y003335D01*
X004675Y003211D01*
X004799Y003088D01*
X005046Y003088D01*
X004860Y003088D02*
X004860Y003335D01*
X004799Y003456D02*
X004675Y003580D01*
X005046Y003580D01*
X004799Y003824D02*
X004860Y003886D01*
X004799Y003824D02*
X004737Y003824D01*
X004675Y003886D01*
X004675Y004010D01*
X004737Y004071D01*
X004799Y004071D01*
X004860Y004010D01*
X004799Y004193D02*
X005046Y004440D01*
X005046Y004193D02*
X004799Y004440D01*
X004737Y002966D02*
X004860Y002966D01*
X004922Y002905D01*
X004922Y002720D01*
X004984Y002598D02*
X004737Y002598D01*
X004675Y002536D01*
X004675Y002413D01*
X004737Y002351D01*
X004984Y002351D01*
X005046Y002413D01*
X005046Y002536D01*
X004984Y002598D01*
X005046Y002720D02*
X004675Y002720D01*
X004675Y002905D01*
X004737Y002966D01*
X005205Y001133D02*
X005390Y001133D01*
X005452Y001071D01*
X005452Y000947D01*
X005390Y000886D01*
X005205Y000886D01*
X005328Y000886D02*
X005452Y000762D01*
X005573Y000762D02*
X005820Y000762D01*
X005697Y000762D02*
X005697Y001133D01*
X005573Y001009D01*
X005942Y001071D02*
X006003Y001133D01*
X006127Y001133D01*
X006188Y001071D01*
X006188Y001009D01*
X005942Y000762D01*
X006188Y000762D01*
X006636Y000677D02*
X006636Y000430D01*
X006698Y000369D01*
X006821Y000369D01*
X006883Y000430D01*
X007004Y000369D02*
X007251Y000369D01*
X007128Y000369D02*
X007128Y000739D01*
X007004Y000615D01*
X006883Y000677D02*
X006821Y000739D01*
X006698Y000739D01*
X006636Y000677D01*
X007373Y000554D02*
X007373Y000430D01*
X007434Y000369D01*
X007558Y000369D01*
X007620Y000430D01*
X007620Y000492D01*
X007558Y000554D01*
X007373Y000554D01*
X007496Y000677D01*
X007620Y000739D01*
X005205Y000762D02*
X005205Y001133D01*
X001507Y009536D02*
X001630Y009660D01*
X001630Y009907D01*
X001383Y009907D02*
X001383Y009660D01*
X001507Y009536D01*
X001262Y009536D02*
X001015Y009536D01*
X001262Y009783D01*
X001262Y009845D01*
X001200Y009907D01*
X001077Y009907D01*
X001015Y009845D01*
X000893Y009536D02*
X000646Y009536D01*
X000770Y009536D02*
X000770Y009907D01*
X000646Y009783D01*
D12*
X000874Y009348D02*
X001374Y009348D01*
X001624Y009098D01*
X001624Y008598D01*
X001374Y008348D01*
X001624Y008098D01*
X001624Y007598D01*
X001374Y007348D01*
X000874Y007348D01*
X000624Y007598D01*
X000624Y008098D01*
X000874Y008348D01*
X000624Y008598D01*
X000624Y009098D01*
X000874Y009348D01*
X000874Y006380D02*
X000624Y006130D01*
X000624Y005630D01*
X000874Y005380D01*
X000624Y005130D01*
X000624Y004630D01*
X000874Y004380D01*
X001374Y004380D01*
X001624Y004630D01*
X001624Y005130D01*
X001374Y005380D01*
X001624Y005630D01*
X001624Y006130D01*
X001374Y006380D01*
X000874Y006380D01*
X000874Y002655D02*
X001374Y002655D01*
X001624Y002405D01*
X001624Y001905D01*
X001374Y001655D01*
X001624Y001405D01*
X001624Y000905D01*
X001374Y000655D01*
X000874Y000655D01*
X000624Y000905D01*
X000624Y001405D01*
X000874Y001655D01*
X000624Y001905D01*
X000624Y002405D01*
X000874Y002655D01*
X008104Y002783D02*
X008104Y002283D01*
X008354Y002033D01*
X008104Y001783D01*
X008104Y001283D01*
X008354Y001033D01*
X008854Y001033D01*
X009104Y001283D01*
X009104Y001783D01*
X008854Y002033D01*
X009104Y002283D01*
X009104Y002783D01*
X008854Y003033D01*
X008354Y003033D01*
X008104Y002783D01*
X008354Y004198D02*
X008104Y004448D01*
X008104Y004948D01*
X008354Y005198D01*
X008104Y005448D01*
X008104Y005948D01*
X008354Y006198D01*
X008854Y006198D01*
X009104Y005948D01*
X009104Y005448D01*
X008854Y005198D01*
X009104Y004948D01*
X009104Y004448D01*
X008854Y004198D01*
X008354Y004198D01*
D13*
X004198Y004099D02*
X004198Y004510D01*
X004198Y004828D02*
X004198Y004865D01*
X003561Y004865D01*
X003561Y004828D01*
X003561Y004510D02*
X003561Y004473D01*
X003561Y004136D02*
X003561Y004099D01*
X003561Y003782D02*
X003561Y003745D01*
X004198Y003745D01*
X004198Y003782D01*
D14*
X004076Y007848D02*
X003683Y007848D01*
X003683Y008045D01*
X003092Y008045D01*
X002502Y008635D01*
X002502Y010801D01*
X003683Y010801D01*
X003683Y010998D01*
X004076Y010998D01*
X004076Y010801D01*
X005257Y010801D01*
X005257Y008635D01*
X004667Y008045D01*
X004076Y008045D01*
X004076Y007848D01*
X004076Y008045D02*
X003683Y008045D01*
X002620Y009423D02*
X002622Y009494D01*
X002628Y009564D01*
X002638Y009634D01*
X002652Y009703D01*
X002669Y009772D01*
X002691Y009839D01*
X002716Y009905D01*
X002745Y009970D01*
X002777Y010032D01*
X002813Y010093D01*
X002852Y010152D01*
X002895Y010209D01*
X002940Y010263D01*
X002989Y010314D01*
X003040Y010363D01*
X003094Y010408D01*
X003151Y010451D01*
X003210Y010490D01*
X003271Y010526D01*
X003333Y010558D01*
X003398Y010587D01*
X003464Y010612D01*
X003531Y010634D01*
X003600Y010651D01*
X003669Y010665D01*
X003739Y010675D01*
X003809Y010681D01*
X003880Y010683D01*
X003951Y010681D01*
X004021Y010675D01*
X004091Y010665D01*
X004160Y010651D01*
X004229Y010634D01*
X004296Y010612D01*
X004362Y010587D01*
X004427Y010558D01*
X004489Y010526D01*
X004550Y010490D01*
X004609Y010451D01*
X004666Y010408D01*
X004720Y010363D01*
X004771Y010314D01*
X004820Y010263D01*
X004865Y010209D01*
X004908Y010152D01*
X004947Y010093D01*
X004983Y010032D01*
X005015Y009970D01*
X005044Y009905D01*
X005069Y009839D01*
X005091Y009772D01*
X005108Y009703D01*
X005122Y009634D01*
X005132Y009564D01*
X005138Y009494D01*
X005140Y009423D01*
X005138Y009352D01*
X005132Y009282D01*
X005122Y009212D01*
X005108Y009143D01*
X005091Y009074D01*
X005069Y009007D01*
X005044Y008941D01*
X005015Y008876D01*
X004983Y008814D01*
X004947Y008753D01*
X004908Y008694D01*
X004865Y008637D01*
X004820Y008583D01*
X004771Y008532D01*
X004720Y008483D01*
X004666Y008438D01*
X004609Y008395D01*
X004550Y008356D01*
X004489Y008320D01*
X004427Y008288D01*
X004362Y008259D01*
X004296Y008234D01*
X004229Y008212D01*
X004160Y008195D01*
X004091Y008181D01*
X004021Y008171D01*
X003951Y008165D01*
X003880Y008163D01*
X003809Y008165D01*
X003739Y008171D01*
X003669Y008181D01*
X003600Y008195D01*
X003531Y008212D01*
X003464Y008234D01*
X003398Y008259D01*
X003333Y008288D01*
X003271Y008320D01*
X003210Y008356D01*
X003151Y008395D01*
X003094Y008438D01*
X003040Y008483D01*
X002989Y008532D01*
X002940Y008583D01*
X002895Y008637D01*
X002852Y008694D01*
X002813Y008753D01*
X002777Y008814D01*
X002745Y008876D01*
X002716Y008941D01*
X002691Y009007D01*
X002669Y009074D01*
X002652Y009143D01*
X002638Y009212D01*
X002628Y009282D01*
X002622Y009352D01*
X002620Y009423D01*
X003683Y010801D02*
X004076Y010801D01*
X006439Y010210D02*
X006439Y008045D01*
X007620Y008045D01*
X007620Y007848D01*
X008013Y007848D01*
X008013Y008045D01*
X007620Y008045D01*
X008013Y008045D02*
X009194Y008045D01*
X009194Y010210D01*
X008604Y010801D01*
X008013Y010801D01*
X008013Y010998D01*
X007620Y010998D01*
X007620Y010801D01*
X008013Y010801D01*
X007620Y010801D02*
X007029Y010801D01*
X006439Y010210D01*
X006557Y009423D02*
X006559Y009494D01*
X006565Y009564D01*
X006575Y009634D01*
X006589Y009703D01*
X006606Y009772D01*
X006628Y009839D01*
X006653Y009905D01*
X006682Y009970D01*
X006714Y010032D01*
X006750Y010093D01*
X006789Y010152D01*
X006832Y010209D01*
X006877Y010263D01*
X006926Y010314D01*
X006977Y010363D01*
X007031Y010408D01*
X007088Y010451D01*
X007147Y010490D01*
X007208Y010526D01*
X007270Y010558D01*
X007335Y010587D01*
X007401Y010612D01*
X007468Y010634D01*
X007537Y010651D01*
X007606Y010665D01*
X007676Y010675D01*
X007746Y010681D01*
X007817Y010683D01*
X007888Y010681D01*
X007958Y010675D01*
X008028Y010665D01*
X008097Y010651D01*
X008166Y010634D01*
X008233Y010612D01*
X008299Y010587D01*
X008364Y010558D01*
X008426Y010526D01*
X008487Y010490D01*
X008546Y010451D01*
X008603Y010408D01*
X008657Y010363D01*
X008708Y010314D01*
X008757Y010263D01*
X008802Y010209D01*
X008845Y010152D01*
X008884Y010093D01*
X008920Y010032D01*
X008952Y009970D01*
X008981Y009905D01*
X009006Y009839D01*
X009028Y009772D01*
X009045Y009703D01*
X009059Y009634D01*
X009069Y009564D01*
X009075Y009494D01*
X009077Y009423D01*
X009075Y009352D01*
X009069Y009282D01*
X009059Y009212D01*
X009045Y009143D01*
X009028Y009074D01*
X009006Y009007D01*
X008981Y008941D01*
X008952Y008876D01*
X008920Y008814D01*
X008884Y008753D01*
X008845Y008694D01*
X008802Y008637D01*
X008757Y008583D01*
X008708Y008532D01*
X008657Y008483D01*
X008603Y008438D01*
X008546Y008395D01*
X008487Y008356D01*
X008426Y008320D01*
X008364Y008288D01*
X008299Y008259D01*
X008233Y008234D01*
X008166Y008212D01*
X008097Y008195D01*
X008028Y008181D01*
X007958Y008171D01*
X007888Y008165D01*
X007817Y008163D01*
X007746Y008165D01*
X007676Y008171D01*
X007606Y008181D01*
X007537Y008195D01*
X007468Y008212D01*
X007401Y008234D01*
X007335Y008259D01*
X007270Y008288D01*
X007208Y008320D01*
X007147Y008356D01*
X007088Y008395D01*
X007031Y008438D01*
X006977Y008483D01*
X006926Y008532D01*
X006877Y008583D01*
X006832Y008637D01*
X006789Y008694D01*
X006750Y008753D01*
X006714Y008814D01*
X006682Y008876D01*
X006653Y008941D01*
X006628Y009007D01*
X006606Y009074D01*
X006589Y009143D01*
X006575Y009212D01*
X006565Y009282D01*
X006559Y009352D01*
X006557Y009423D01*
M02*
