G75*
%MOIN*%
%OFA0B0*%
%FSLAX24Y24*%
%IPPOS*%
%LPD*%
%AMOC8*
5,1,8,0,0,1.08239X$1,22.5*
%
%ADD10C,0.0000*%
%ADD11C,0.0820*%
%ADD12R,0.0592X0.0671*%
%ADD13R,0.0671X0.0592*%
%ADD14R,0.0552X0.0297*%
%ADD15R,0.0710X0.1655*%
%ADD16C,0.0580*%
%ADD17C,0.0480*%
%ADD18C,0.0378*%
D10*
X000100Y000100D02*
X000100Y011785D01*
X009785Y011785D01*
X009785Y000100D01*
X000100Y000100D01*
D11*
X001124Y001085D03*
X001124Y002225D03*
X001124Y004810D03*
X001124Y005950D03*
X001124Y007778D03*
X001124Y008918D03*
X008604Y005768D03*
X008604Y004628D03*
X008604Y002603D03*
X008604Y001463D03*
D12*
X004057Y006273D03*
X003309Y006273D03*
X002285Y003517D03*
X001537Y003517D03*
D13*
X005848Y003931D03*
X005848Y004679D03*
X007226Y005112D03*
X007226Y005860D03*
X007226Y003891D03*
X007226Y003143D03*
X007226Y001923D03*
X007226Y001175D03*
X005848Y001569D03*
X005848Y002317D03*
D14*
X004391Y003931D03*
X004391Y004679D03*
X003368Y004679D03*
X003368Y004305D03*
X003368Y003931D03*
D15*
X003880Y008143D03*
X003880Y010702D03*
X007817Y010702D03*
X007817Y008143D03*
D16*
X005848Y007750D03*
X005848Y010801D03*
D17*
X008801Y009817D03*
D18*
X004765Y006076D03*
X004962Y004698D03*
X003880Y003419D03*
X004962Y002139D03*
X004667Y000761D03*
X002502Y004502D03*
M02*
