G75*
%MOIN*%
%OFA0B0*%
%FSLAX24Y24*%
%IPPOS*%
%LPD*%
%AMOC8*
5,1,8,0,0,1.08239X$1,22.5*
%
%ADD10C,0.0000*%
%ADD11C,0.0030*%
%ADD12C,0.0060*%
D10*
X000100Y000100D02*
X000100Y011785D01*
X009785Y011785D01*
X009785Y000100D01*
X000100Y000100D01*
D11*
X001829Y002731D02*
X001953Y002731D01*
X002014Y002792D01*
X002014Y002854D01*
X001953Y002916D01*
X001829Y002916D01*
X001767Y002854D01*
X001767Y002792D01*
X001829Y002731D01*
X001829Y002916D02*
X001767Y002978D01*
X001767Y003039D01*
X001829Y003101D01*
X001953Y003101D01*
X002014Y003039D01*
X002014Y002978D01*
X001953Y002916D01*
X002136Y002916D02*
X002197Y002854D01*
X002383Y002854D01*
X002383Y002731D02*
X002383Y003101D01*
X002197Y003101D01*
X002136Y003039D01*
X002136Y002916D01*
X002259Y002854D02*
X002136Y002731D01*
X002790Y001647D02*
X002790Y001585D01*
X003037Y001338D01*
X003037Y001276D01*
X003159Y001276D02*
X003406Y001276D01*
X003282Y001276D02*
X003282Y001647D01*
X003406Y001523D01*
X003527Y001585D02*
X003589Y001647D01*
X003712Y001647D01*
X003774Y001585D01*
X003774Y001338D01*
X003712Y001276D01*
X003589Y001276D01*
X003527Y001338D01*
X003037Y001647D02*
X002790Y001647D01*
X005409Y001661D02*
X005409Y001415D01*
X005471Y001353D01*
X005594Y001353D01*
X005656Y001415D01*
X005409Y001661D01*
X005471Y001723D01*
X005594Y001723D01*
X005656Y001661D01*
X005656Y001415D01*
X005778Y001353D02*
X006024Y001353D01*
X005901Y001353D02*
X005901Y001723D01*
X006024Y001600D01*
X006146Y001661D02*
X006146Y001538D01*
X006208Y001476D01*
X006393Y001476D01*
X006393Y001353D02*
X006393Y001723D01*
X006208Y001723D01*
X006146Y001661D01*
X006269Y001476D02*
X006146Y001353D01*
X006832Y000874D02*
X006832Y000627D01*
X006894Y000565D01*
X007018Y000565D01*
X007079Y000627D01*
X006832Y000874D01*
X006894Y000936D01*
X007018Y000936D01*
X007079Y000874D01*
X007079Y000627D01*
X007201Y000565D02*
X007448Y000565D01*
X007201Y000812D01*
X007201Y000874D01*
X007262Y000936D01*
X007386Y000936D01*
X007448Y000874D01*
X007569Y000874D02*
X007631Y000936D01*
X007754Y000936D01*
X007816Y000874D01*
X007816Y000627D01*
X007754Y000565D01*
X007631Y000565D01*
X007569Y000627D01*
X006810Y003170D02*
X006439Y003170D01*
X006563Y003170D02*
X006563Y003355D01*
X006625Y003416D01*
X006748Y003416D01*
X006810Y003355D01*
X006810Y003170D01*
X006563Y003293D02*
X006439Y003416D01*
X006439Y003538D02*
X006439Y003785D01*
X006439Y003906D02*
X006439Y004153D01*
X006439Y004030D02*
X006810Y004030D01*
X006686Y003906D01*
X006810Y003661D02*
X006439Y003661D01*
X006686Y003538D02*
X006810Y003661D01*
X006181Y005706D02*
X006181Y006076D01*
X005996Y006076D01*
X005935Y006014D01*
X005935Y005891D01*
X005996Y005829D01*
X006181Y005829D01*
X006058Y005829D02*
X005935Y005706D01*
X005813Y005767D02*
X005751Y005706D01*
X005628Y005706D01*
X005566Y005767D01*
X005566Y006014D01*
X005628Y006076D01*
X005751Y006076D01*
X005813Y006014D01*
X005813Y005952D01*
X005751Y005891D01*
X005566Y005891D01*
X006727Y006358D02*
X006789Y006296D01*
X006913Y006296D01*
X006974Y006358D01*
X007096Y006296D02*
X007343Y006296D01*
X007219Y006296D02*
X007219Y006666D01*
X007343Y006543D01*
X007464Y006605D02*
X007526Y006666D01*
X007649Y006666D01*
X007711Y006605D01*
X007711Y006358D01*
X007649Y006296D01*
X007526Y006296D01*
X007464Y006358D01*
X006974Y006605D02*
X006913Y006666D01*
X006789Y006666D01*
X006727Y006605D01*
X006727Y006543D01*
X006789Y006481D01*
X006727Y006420D01*
X006727Y006358D01*
X006789Y006481D02*
X006851Y006481D01*
X005235Y009004D02*
X004865Y009004D01*
X004988Y009004D02*
X004988Y009190D01*
X005050Y009251D01*
X005173Y009251D01*
X005235Y009190D01*
X005235Y009004D01*
X004988Y009128D02*
X004865Y009251D01*
X004865Y009373D02*
X004926Y009373D01*
X005173Y009620D01*
X005235Y009620D01*
X005235Y009373D01*
D12*
X004198Y003093D02*
X003561Y003093D01*
X003561Y003056D01*
X003561Y002739D02*
X003561Y002702D01*
X003561Y002365D02*
X003561Y002328D01*
X003561Y002010D02*
X003561Y001973D01*
X004198Y001973D01*
X004198Y002010D01*
X004198Y002328D02*
X004198Y002739D01*
X004198Y003056D02*
X004198Y003093D01*
M02*
