%
M48
M72
T01C0.0138
T02C0.0157
T03C0.0197
T04C0.0400
%
T01
X3939Y2364
X4726Y2364
X6225Y4100
X6104Y6399
X2561Y6399
X2475Y4100
T02
X2850Y725
X5850Y725
T03
X3350Y6850
X5350Y6850
T04
X900Y6850
X800Y5850
X900Y4850
X800Y3850
X900Y2850
X800Y1850
X900Y850
X7800Y1850
X7900Y850
X7900Y2850
X7800Y3850
X7900Y4850
X7800Y5850
X7900Y6850
M30
