G75*
%MOIN*%
%OFA0B0*%
%FSLAX24Y24*%
%IPPOS*%
%LPD*%
%AMOC8*
5,1,8,0,0,1.08239X$1,22.5*
%
%ADD10C,0.0000*%
%ADD11C,0.0740*%
%ADD12R,0.0460X0.0630*%
%ADD13C,0.0298*%
%ADD14C,0.0120*%
%ADD15C,0.0100*%
%ADD16C,0.0500*%
%ADD17C,0.0320*%
%ADD18C,0.0400*%
D10*
X000100Y000100D02*
X000100Y007580D01*
X008761Y007580D01*
X008761Y000100D01*
X000100Y000100D01*
D11*
X000900Y000850D03*
X000800Y001850D03*
X000900Y002850D03*
X000800Y003850D03*
X000900Y004850D03*
X000800Y005850D03*
X000900Y006850D03*
X007800Y005850D03*
X007900Y004850D03*
X007800Y003850D03*
X007900Y002850D03*
X007800Y001850D03*
X007900Y000850D03*
X007900Y006850D03*
D12*
X005420Y005907D03*
X004820Y005907D03*
X003845Y005907D03*
X003245Y005907D03*
D13*
X002561Y006399D03*
X006104Y006399D03*
X004726Y002364D03*
X003939Y002364D03*
D14*
X003939Y005813D01*
X003845Y005907D01*
X003245Y005907D02*
X003245Y006010D01*
X002856Y006399D01*
X002561Y006399D01*
X004726Y005813D02*
X004820Y005907D01*
X004726Y005813D02*
X004726Y002364D01*
X005420Y005907D02*
X005420Y006010D01*
X005809Y006399D01*
X006104Y006399D01*
D15*
X005883Y006629D02*
X005713Y006629D01*
X005579Y006494D01*
X005476Y006392D01*
X004600Y006392D01*
X004600Y006895D01*
X004835Y007130D01*
X007432Y007130D01*
X007360Y006957D01*
X007360Y006743D01*
X007442Y006544D01*
X007594Y006392D01*
X007793Y006310D01*
X008007Y006310D01*
X008100Y006348D01*
X008100Y005352D01*
X008007Y005390D01*
X007793Y005390D01*
X007594Y005308D01*
X007442Y005156D01*
X007360Y004957D01*
X007360Y004743D01*
X007442Y004544D01*
X007594Y004392D01*
X007646Y004371D01*
X007494Y004308D01*
X007342Y004156D01*
X007260Y003957D01*
X007260Y003743D01*
X007342Y003544D01*
X007494Y003392D01*
X007646Y003329D01*
X007594Y003308D01*
X007442Y003156D01*
X007360Y002957D01*
X007360Y002743D01*
X007442Y002544D01*
X007594Y002392D01*
X007646Y002371D01*
X007494Y002308D01*
X007342Y002156D01*
X007260Y001957D01*
X007260Y001743D01*
X007342Y001544D01*
X007494Y001392D01*
X007646Y001329D01*
X007594Y001308D01*
X007442Y001156D01*
X007360Y000957D01*
X007360Y000743D01*
X007440Y000550D01*
X005525Y000550D01*
X005100Y000975D01*
X005100Y005100D01*
X004956Y005244D01*
X004956Y005422D01*
X005120Y005422D01*
X005720Y005422D01*
X005820Y005522D01*
X005820Y006085D01*
X005893Y006159D01*
X005923Y006129D01*
X006041Y006080D01*
X006167Y006080D01*
X006285Y006129D01*
X006374Y006219D01*
X008100Y006219D01*
X008100Y006120D02*
X006264Y006120D01*
X006374Y006219D02*
X006423Y006336D01*
X006423Y006463D01*
X006374Y006580D01*
X006285Y006670D01*
X006167Y006718D01*
X006041Y006718D01*
X005923Y006670D01*
X005883Y006629D01*
X006024Y006711D02*
X004600Y006711D01*
X004600Y006613D02*
X005697Y006613D01*
X005599Y006514D02*
X004600Y006514D01*
X004600Y006416D02*
X005500Y006416D01*
X005855Y006120D02*
X005944Y006120D01*
X005820Y006022D02*
X008100Y006022D01*
X008100Y005923D02*
X005820Y005923D01*
X005820Y005825D02*
X008100Y005825D01*
X008100Y005726D02*
X005820Y005726D01*
X005820Y005628D02*
X008100Y005628D01*
X008100Y005529D02*
X005820Y005529D01*
X005729Y005431D02*
X008100Y005431D01*
X007653Y005332D02*
X004956Y005332D01*
X004966Y005234D02*
X007520Y005234D01*
X007434Y005135D02*
X005065Y005135D01*
X005100Y005037D02*
X007393Y005037D01*
X007360Y004938D02*
X005100Y004938D01*
X005100Y004840D02*
X007360Y004840D01*
X007361Y004741D02*
X005100Y004741D01*
X005100Y004643D02*
X007401Y004643D01*
X007442Y004544D02*
X005100Y004544D01*
X005100Y004446D02*
X007541Y004446D01*
X007590Y004347D02*
X005100Y004347D01*
X005100Y004249D02*
X007435Y004249D01*
X007340Y004150D02*
X005100Y004150D01*
X005100Y004052D02*
X007299Y004052D01*
X007260Y003953D02*
X005100Y003953D01*
X005100Y003855D02*
X007260Y003855D01*
X007260Y003756D02*
X005100Y003756D01*
X005100Y003658D02*
X007295Y003658D01*
X007336Y003559D02*
X005100Y003559D01*
X005100Y003461D02*
X007426Y003461D01*
X007566Y003362D02*
X005100Y003362D01*
X005100Y003264D02*
X007550Y003264D01*
X007452Y003165D02*
X005100Y003165D01*
X005100Y003067D02*
X007405Y003067D01*
X007365Y002968D02*
X005100Y002968D01*
X005100Y002870D02*
X007360Y002870D01*
X007360Y002771D02*
X005100Y002771D01*
X005100Y002673D02*
X007389Y002673D01*
X007430Y002574D02*
X005100Y002574D01*
X005100Y002476D02*
X007511Y002476D01*
X007630Y002377D02*
X005100Y002377D01*
X005100Y002279D02*
X007465Y002279D01*
X007367Y002180D02*
X005100Y002180D01*
X005100Y002082D02*
X007312Y002082D01*
X007271Y001983D02*
X005100Y001983D01*
X005100Y001885D02*
X007260Y001885D01*
X007260Y001786D02*
X005100Y001786D01*
X005100Y001688D02*
X007283Y001688D01*
X007323Y001589D02*
X005100Y001589D01*
X005100Y001491D02*
X007396Y001491D01*
X007494Y001392D02*
X005100Y001392D01*
X005100Y001294D02*
X007580Y001294D01*
X007482Y001195D02*
X005100Y001195D01*
X005100Y001097D02*
X007418Y001097D01*
X007377Y000998D02*
X005100Y000998D01*
X005175Y000900D02*
X007360Y000900D01*
X007360Y000801D02*
X005274Y000801D01*
X005372Y000703D02*
X007376Y000703D01*
X007417Y000604D02*
X005471Y000604D01*
X003600Y000975D02*
X003175Y000550D01*
X001360Y000550D01*
X001440Y000743D01*
X001440Y000957D01*
X001358Y001156D01*
X001206Y001308D01*
X001054Y001371D01*
X001106Y001392D01*
X001258Y001544D01*
X001340Y001743D01*
X001340Y001957D01*
X001258Y002156D01*
X001106Y002308D01*
X001054Y002329D01*
X001206Y002392D01*
X001358Y002544D01*
X001440Y002743D01*
X001440Y002957D01*
X001358Y003156D01*
X001206Y003308D01*
X001054Y003371D01*
X001106Y003392D01*
X001258Y003544D01*
X001340Y003743D01*
X001340Y003957D01*
X001258Y004156D01*
X001106Y004308D01*
X001054Y004329D01*
X001206Y004392D01*
X001358Y004544D01*
X001440Y004743D01*
X001440Y004957D01*
X001358Y005156D01*
X001206Y005308D01*
X001007Y005390D01*
X000793Y005390D01*
X000600Y005310D01*
X000600Y006390D01*
X000793Y006310D01*
X001007Y006310D01*
X001206Y006392D01*
X001358Y006544D01*
X001440Y006743D01*
X001440Y006957D01*
X001368Y007130D01*
X003865Y007130D01*
X004100Y006895D01*
X004100Y006392D01*
X003188Y006392D01*
X003086Y006494D01*
X002951Y006629D01*
X002782Y006629D01*
X002741Y006670D01*
X002624Y006718D01*
X002497Y006718D01*
X002380Y006670D01*
X002290Y006580D01*
X002242Y006463D01*
X002242Y006336D01*
X002290Y006219D01*
X000600Y006219D01*
X000600Y006120D02*
X002401Y006120D01*
X002380Y006129D02*
X002497Y006080D01*
X002624Y006080D01*
X002741Y006129D01*
X002771Y006159D01*
X002845Y006085D01*
X002845Y005522D01*
X002944Y005422D01*
X003709Y005422D01*
X003709Y005209D01*
X003600Y005100D01*
X003600Y000975D01*
X003600Y000998D02*
X001423Y000998D01*
X001440Y000900D02*
X003525Y000900D01*
X003426Y000801D02*
X001440Y000801D01*
X001424Y000703D02*
X003328Y000703D01*
X003229Y000604D02*
X001383Y000604D01*
X001382Y001097D02*
X003600Y001097D01*
X003600Y001195D02*
X001318Y001195D01*
X001220Y001294D02*
X003600Y001294D01*
X003600Y001392D02*
X001106Y001392D01*
X001204Y001491D02*
X003600Y001491D01*
X003600Y001589D02*
X001277Y001589D01*
X001317Y001688D02*
X003600Y001688D01*
X003600Y001786D02*
X001340Y001786D01*
X001340Y001885D02*
X003600Y001885D01*
X003600Y001983D02*
X001329Y001983D01*
X001288Y002082D02*
X003600Y002082D01*
X003600Y002180D02*
X001233Y002180D01*
X001135Y002279D02*
X003600Y002279D01*
X003600Y002377D02*
X001170Y002377D01*
X001289Y002476D02*
X003600Y002476D01*
X003600Y002574D02*
X001370Y002574D01*
X001411Y002673D02*
X003600Y002673D01*
X003600Y002771D02*
X001440Y002771D01*
X001440Y002870D02*
X003600Y002870D01*
X003600Y002968D02*
X001435Y002968D01*
X001395Y003067D02*
X003600Y003067D01*
X003600Y003165D02*
X001348Y003165D01*
X001250Y003264D02*
X003600Y003264D01*
X003600Y003362D02*
X001074Y003362D01*
X001174Y003461D02*
X003600Y003461D01*
X003600Y003559D02*
X001264Y003559D01*
X001305Y003658D02*
X003600Y003658D01*
X003600Y003756D02*
X001340Y003756D01*
X001340Y003855D02*
X003600Y003855D01*
X003600Y003953D02*
X001340Y003953D01*
X001301Y004052D02*
X003600Y004052D01*
X003600Y004150D02*
X001260Y004150D01*
X001165Y004249D02*
X003600Y004249D01*
X003600Y004347D02*
X001098Y004347D01*
X001259Y004446D02*
X003600Y004446D01*
X003600Y004544D02*
X001358Y004544D01*
X001399Y004643D02*
X003600Y004643D01*
X003600Y004741D02*
X001439Y004741D01*
X001440Y004840D02*
X003600Y004840D01*
X003600Y004938D02*
X001440Y004938D01*
X001407Y005037D02*
X003600Y005037D01*
X003635Y005135D02*
X001366Y005135D01*
X001280Y005234D02*
X003709Y005234D01*
X003709Y005332D02*
X001147Y005332D01*
X000653Y005332D02*
X000600Y005332D01*
X000600Y005431D02*
X002936Y005431D01*
X002845Y005529D02*
X000600Y005529D01*
X000600Y005628D02*
X002845Y005628D01*
X002845Y005726D02*
X000600Y005726D01*
X000600Y005825D02*
X002845Y005825D01*
X002845Y005923D02*
X000600Y005923D01*
X000600Y006022D02*
X002845Y006022D01*
X002810Y006120D02*
X002721Y006120D01*
X002380Y006129D02*
X002290Y006219D01*
X002249Y006317D02*
X001025Y006317D01*
X001230Y006416D02*
X002242Y006416D01*
X002263Y006514D02*
X001328Y006514D01*
X001386Y006613D02*
X002323Y006613D01*
X002481Y006711D02*
X001427Y006711D01*
X001440Y006810D02*
X004100Y006810D01*
X004100Y006711D02*
X002640Y006711D01*
X002968Y006613D02*
X004100Y006613D01*
X004100Y006514D02*
X003066Y006514D01*
X003165Y006416D02*
X004100Y006416D01*
X004600Y006810D02*
X007360Y006810D01*
X007360Y006908D02*
X004613Y006908D01*
X004712Y007007D02*
X007380Y007007D01*
X007421Y007105D02*
X004810Y007105D01*
X004087Y006908D02*
X001440Y006908D01*
X001420Y007007D02*
X003988Y007007D01*
X003890Y007105D02*
X001379Y007105D01*
X000775Y006317D02*
X000600Y006317D01*
X006184Y006711D02*
X007373Y006711D01*
X007414Y006613D02*
X006341Y006613D01*
X006401Y006514D02*
X007472Y006514D01*
X007570Y006416D02*
X006423Y006416D01*
X006415Y006317D02*
X007775Y006317D01*
X008025Y006317D02*
X008100Y006317D01*
D16*
X005350Y006850D03*
X003350Y006850D03*
D17*
X002475Y004100D03*
X006225Y004100D03*
D18*
X005850Y000725D03*
X002850Y000725D03*
M02*
