G75*
%MOIN*%
%OFA0B0*%
%FSLAX24Y24*%
%IPPOS*%
%LPD*%
%AMOC8*
5,1,8,0,0,1.08239X$1,22.5*
%
%ADD10C,0.0000*%
%ADD11R,0.0880X0.0340*%
%ADD12C,0.0820*%
%ADD13R,0.0592X0.0671*%
%ADD14C,0.0378*%
%ADD15C,0.0580*%
%ADD16C,0.0400*%
%ADD17C,0.0480*%
D10*
X000100Y000100D02*
X000100Y007580D01*
X008761Y007580D01*
X008761Y000100D01*
X000100Y000100D01*
D11*
X003140Y001100D03*
X003140Y001600D03*
X003140Y002100D03*
X003140Y002600D03*
X003140Y003100D03*
X003140Y003600D03*
X003140Y004100D03*
X003140Y004600D03*
X005560Y004600D03*
X005560Y004100D03*
X005560Y003600D03*
X005560Y003100D03*
X005560Y002600D03*
X005560Y002100D03*
X005560Y001600D03*
X005560Y001100D03*
D12*
X007800Y001850D03*
X007900Y000850D03*
X007900Y002850D03*
X007800Y003850D03*
X007900Y004850D03*
X007800Y005850D03*
X007900Y006850D03*
X000900Y006850D03*
X000800Y005850D03*
X000900Y004850D03*
X000800Y003850D03*
X000900Y002850D03*
X000800Y001850D03*
X000900Y000850D03*
D13*
X002976Y005850D03*
X003724Y005850D03*
X004976Y005850D03*
X005724Y005850D03*
D14*
X006104Y006399D03*
X002561Y006399D03*
X003939Y002364D03*
X004726Y002364D03*
D15*
X005350Y006850D03*
X003350Y006850D03*
D16*
X002475Y004100D03*
X006225Y004100D03*
D17*
X005850Y000725D03*
X002850Y000725D03*
M02*
