G75*
%MOIN*%
%OFA0B0*%
%FSLAX24Y24*%
%IPPOS*%
%LPD*%
%AMOC8*
5,1,8,0,0,1.08239X$1,22.5*
%
%ADD10C,0.0000*%
%ADD11C,0.0060*%
%ADD12C,0.0020*%
%ADD13C,0.0080*%
%ADD14C,0.0030*%
D10*
X000100Y000100D02*
X000100Y007580D01*
X008761Y007580D01*
X008761Y000100D01*
X000100Y000100D01*
D11*
X003580Y001000D02*
X003580Y004700D01*
X003582Y004723D01*
X003587Y004746D01*
X003596Y004768D01*
X003609Y004788D01*
X003624Y004806D01*
X003642Y004821D01*
X003662Y004834D01*
X003684Y004843D01*
X003707Y004848D01*
X003730Y004850D01*
X004150Y004850D01*
X004550Y004850D01*
X004970Y004850D01*
X004993Y004848D01*
X005016Y004843D01*
X005038Y004834D01*
X005058Y004821D01*
X005076Y004806D01*
X005091Y004788D01*
X005104Y004768D01*
X005113Y004746D01*
X005118Y004723D01*
X005120Y004700D01*
X005120Y001000D01*
X005118Y000977D01*
X005113Y000954D01*
X005104Y000932D01*
X005091Y000912D01*
X005076Y000894D01*
X005058Y000879D01*
X005038Y000866D01*
X005016Y000857D01*
X004993Y000852D01*
X004970Y000850D01*
X003730Y000850D01*
X003707Y000852D01*
X003684Y000857D01*
X003662Y000866D01*
X003642Y000879D01*
X003624Y000894D01*
X003609Y000912D01*
X003596Y000932D01*
X003587Y000954D01*
X003582Y000977D01*
X003580Y001000D01*
X004150Y004850D02*
X004152Y004823D01*
X004157Y004796D01*
X004167Y004770D01*
X004179Y004746D01*
X004195Y004724D01*
X004213Y004704D01*
X004235Y004687D01*
X004258Y004672D01*
X004283Y004662D01*
X004309Y004654D01*
X004336Y004650D01*
X004364Y004650D01*
X004391Y004654D01*
X004417Y004662D01*
X004442Y004672D01*
X004465Y004687D01*
X004487Y004704D01*
X004505Y004724D01*
X004521Y004746D01*
X004533Y004770D01*
X004543Y004796D01*
X004548Y004823D01*
X004550Y004850D01*
D12*
X003720Y004850D02*
X003720Y000850D01*
D13*
X001350Y000600D02*
X001100Y000350D01*
X000600Y000350D01*
X000350Y000600D01*
X000350Y001100D01*
X000600Y001350D01*
X000350Y001600D01*
X000350Y002100D01*
X000600Y002350D01*
X000350Y002600D01*
X000350Y003100D01*
X000600Y003350D01*
X000350Y003600D01*
X000350Y004100D01*
X000600Y004350D01*
X000350Y004600D01*
X000350Y005100D01*
X000600Y005350D01*
X000350Y005600D01*
X000350Y006100D01*
X000600Y006350D01*
X000350Y006600D01*
X000350Y007100D01*
X000600Y007350D01*
X001100Y007350D01*
X001350Y007100D01*
X001350Y006600D01*
X001100Y006350D01*
X001350Y006100D01*
X001350Y005600D01*
X001100Y005350D01*
X001350Y005100D01*
X001350Y004600D01*
X001100Y004350D01*
X001350Y004100D01*
X001350Y003600D01*
X001100Y003350D01*
X001350Y003100D01*
X001350Y002600D01*
X001100Y002350D01*
X001350Y002100D01*
X001350Y001600D01*
X001100Y001350D01*
X001350Y001100D01*
X001350Y000600D01*
X007350Y000600D02*
X007350Y001100D01*
X007600Y001350D01*
X007350Y001600D01*
X007350Y002100D01*
X007600Y002350D01*
X007350Y002600D01*
X007350Y003100D01*
X007600Y003350D01*
X007350Y003600D01*
X007350Y004100D01*
X007600Y004350D01*
X007350Y004600D01*
X007350Y005100D01*
X007600Y005350D01*
X007350Y005600D01*
X007350Y006100D01*
X007600Y006350D01*
X007350Y006600D01*
X007350Y007100D01*
X007600Y007350D01*
X008100Y007350D01*
X008350Y007100D01*
X008350Y006600D01*
X008100Y006350D01*
X008350Y006100D01*
X008350Y005600D01*
X008100Y005350D01*
X008350Y005100D01*
X008350Y004600D01*
X008100Y004350D01*
X008350Y004100D01*
X008350Y003600D01*
X008100Y003350D01*
X008350Y003100D01*
X008350Y002600D01*
X008100Y002350D01*
X008350Y002100D01*
X008350Y001600D01*
X008100Y001350D01*
X008350Y001100D01*
X008350Y000600D01*
X008100Y000350D01*
X007600Y000350D01*
X007350Y000600D01*
D14*
X002389Y005481D02*
X002451Y005543D01*
X002451Y005666D01*
X002389Y005728D01*
X002451Y005849D02*
X002451Y006096D01*
X002451Y005973D02*
X002081Y005973D01*
X002204Y005849D01*
X002143Y005728D02*
X002081Y005666D01*
X002081Y005543D01*
X002143Y005481D01*
X002389Y005481D01*
X006213Y005592D02*
X006275Y005530D01*
X006522Y005530D01*
X006583Y005592D01*
X006583Y005715D01*
X006522Y005777D01*
X006583Y005898D02*
X006337Y006145D01*
X006275Y006145D01*
X006213Y006083D01*
X006213Y005960D01*
X006275Y005898D01*
X006275Y005777D02*
X006213Y005715D01*
X006213Y005592D01*
X006583Y005898D02*
X006583Y006145D01*
M02*
