G75*
%MOIN*%
%OFA0B0*%
%FSLAX24Y24*%
%IPPOS*%
%LPD*%
%AMOC8*
5,1,8,0,0,1.08239X$1,22.5*
%
%ADD10C,0.0000*%
%ADD11R,0.0257X0.0552*%
%ADD12C,0.0820*%
%ADD13R,0.0600X0.0300*%
%ADD14R,0.0600X0.0280*%
%ADD15R,0.0671X0.0592*%
%ADD16R,0.0592X0.0671*%
%ADD17R,0.0710X0.1655*%
%ADD18C,0.0580*%
%ADD19C,0.0400*%
D10*
X000100Y000100D02*
X000100Y007588D01*
X010785Y007588D01*
X010785Y000100D01*
X000100Y000100D01*
D11*
X007252Y002590D03*
X007507Y002590D03*
X007763Y002590D03*
X008019Y002590D03*
X008019Y004303D03*
X007763Y004303D03*
X007507Y004303D03*
X007252Y004303D03*
D12*
X009899Y004936D03*
X009899Y006076D03*
X008604Y000987D03*
X009604Y000887D03*
X007604Y000887D03*
X006604Y000987D03*
X005604Y000887D03*
X004604Y000987D03*
D13*
X002947Y006029D03*
X002947Y006769D03*
D14*
X002087Y006399D03*
D15*
X004289Y006025D03*
X004289Y006773D03*
X004289Y004411D03*
X004289Y003663D03*
X005864Y003663D03*
X005864Y004411D03*
D16*
X007065Y005513D03*
X007813Y005513D03*
X007458Y006793D03*
X008206Y006793D03*
X005254Y002462D03*
X004506Y002462D03*
D17*
X001730Y001576D03*
X001730Y004135D03*
D18*
X005667Y005415D03*
X002714Y000887D03*
D19*
X006651Y002659D03*
X004289Y005218D03*
M02*
