G75*
%MOIN*%
%OFA0B0*%
%FSLAX24Y24*%
%IPPOS*%
%LPD*%
%AMOC8*
5,1,8,0,0,1.08239X$1,22.5*
%
%ADD10C,0.0000*%
%ADD11R,0.0177X0.0472*%
%ADD12C,0.0740*%
%ADD13R,0.0520X0.0220*%
%ADD14R,0.0520X0.0200*%
%ADD15R,0.0591X0.0512*%
%ADD16R,0.0512X0.0591*%
%ADD17R,0.0630X0.1575*%
%ADD18C,0.0500*%
%ADD19C,0.0400*%
%ADD20C,0.0320*%
%ADD21C,0.0100*%
%ADD22C,0.0160*%
%ADD23C,0.0120*%
%ADD24C,0.0320*%
%ADD25C,0.0240*%
D10*
X000100Y000100D02*
X000100Y007588D01*
X010785Y007588D01*
X010785Y000100D01*
X000100Y000100D01*
D11*
X007252Y002590D03*
X007507Y002590D03*
X007763Y002590D03*
X008019Y002590D03*
X008019Y004303D03*
X007763Y004303D03*
X007507Y004303D03*
X007252Y004303D03*
D12*
X009899Y004936D03*
X009899Y006076D03*
X008604Y000987D03*
X009604Y000887D03*
X007604Y000887D03*
X006604Y000987D03*
X005604Y000887D03*
X004604Y000987D03*
D13*
X002947Y006029D03*
X002947Y006769D03*
D14*
X002087Y006399D03*
D15*
X004289Y006025D03*
X004289Y006773D03*
X004289Y004411D03*
X004289Y003663D03*
X005864Y003663D03*
X005864Y004411D03*
D16*
X007065Y005513D03*
X007813Y005513D03*
X007458Y006793D03*
X008206Y006793D03*
X005254Y002462D03*
X004506Y002462D03*
D17*
X001730Y001576D03*
X001730Y004135D03*
D18*
X005667Y005415D03*
X002714Y000887D03*
D19*
X002714Y001281D01*
X002419Y001576D01*
X001730Y001576D01*
D20*
X005254Y002383D02*
X005569Y002069D01*
X005569Y000923D01*
X005604Y000887D01*
X005254Y002383D02*
X005254Y002462D01*
X004289Y004411D02*
X004289Y005218D01*
X004289Y006025D01*
X004285Y006029D01*
X002947Y006029D01*
X002947Y006769D02*
X004285Y006769D01*
X004289Y006773D01*
X008206Y006793D02*
X009182Y006793D01*
X009899Y006076D01*
D21*
X007242Y005612D02*
X007242Y004234D01*
X005273Y004234D01*
X004880Y004628D01*
X004880Y005612D01*
X004754Y005737D01*
X004754Y006352D01*
X004655Y006451D01*
X004092Y006451D01*
X004092Y006793D01*
X004437Y007138D01*
X005814Y007138D01*
X006159Y006793D01*
X006159Y006301D01*
X006454Y006006D01*
X006848Y006006D01*
X007242Y005612D01*
X007226Y005628D02*
X004864Y005628D01*
X004765Y005726D02*
X007127Y005726D01*
X007029Y005825D02*
X004754Y005825D01*
X004754Y005923D02*
X006930Y005923D01*
X006438Y006022D02*
X004754Y006022D01*
X004754Y006120D02*
X006340Y006120D01*
X006241Y006219D02*
X004754Y006219D01*
X004754Y006317D02*
X006159Y006317D01*
X006159Y006416D02*
X004690Y006416D01*
X004092Y006514D02*
X006159Y006514D01*
X006159Y006613D02*
X004092Y006613D01*
X004092Y006711D02*
X006159Y006711D01*
X006142Y006810D02*
X004109Y006810D01*
X004207Y006908D02*
X006044Y006908D01*
X005945Y007007D02*
X004306Y007007D01*
X004404Y007105D02*
X005847Y007105D01*
X004880Y005529D02*
X007242Y005529D01*
X007242Y005431D02*
X004880Y005431D01*
X004880Y005332D02*
X007242Y005332D01*
X007242Y005234D02*
X004880Y005234D01*
X004880Y005135D02*
X007242Y005135D01*
X007242Y005037D02*
X004880Y005037D01*
X004880Y004938D02*
X007242Y004938D01*
X007242Y004840D02*
X004880Y004840D01*
X004880Y004741D02*
X007242Y004741D01*
X007242Y004643D02*
X004880Y004643D01*
X004963Y004544D02*
X007242Y004544D01*
X007242Y004446D02*
X005061Y004446D01*
X005160Y004347D02*
X007242Y004347D01*
X007242Y004249D02*
X005258Y004249D01*
X006454Y003643D02*
X006454Y003250D01*
X005719Y002515D01*
X005719Y002844D01*
X005596Y002967D01*
X004911Y002967D01*
X004788Y002844D01*
X004788Y002080D01*
X004911Y001957D01*
X005157Y001957D01*
X005199Y001915D01*
X005199Y001302D01*
X005112Y001216D01*
X005024Y001003D01*
X005024Y000772D01*
X005063Y000677D01*
X004936Y000550D01*
X003642Y000550D01*
X003147Y001046D01*
X003124Y001100D01*
X003124Y001363D01*
X003062Y001513D01*
X002946Y001629D01*
X002651Y001924D01*
X002500Y001986D01*
X002255Y001986D01*
X002255Y002451D01*
X002132Y002574D01*
X001328Y002574D01*
X001276Y002522D01*
X000550Y003248D01*
X000550Y004826D01*
X000943Y005218D01*
X002911Y005218D01*
X003305Y004824D01*
X003305Y004037D01*
X003698Y003643D01*
X006454Y003643D01*
X006454Y003559D02*
X000550Y003559D01*
X000550Y003461D02*
X006454Y003461D01*
X006454Y003362D02*
X000550Y003362D01*
X000550Y003264D02*
X006454Y003264D01*
X006370Y003165D02*
X000633Y003165D01*
X000732Y003067D02*
X006271Y003067D01*
X006173Y002968D02*
X000830Y002968D01*
X000929Y002870D02*
X004813Y002870D01*
X004788Y002771D02*
X001027Y002771D01*
X001126Y002673D02*
X004788Y002673D01*
X004788Y002574D02*
X001224Y002574D01*
X002230Y002476D02*
X004788Y002476D01*
X004788Y002377D02*
X002255Y002377D01*
X002255Y002279D02*
X004788Y002279D01*
X004788Y002180D02*
X002255Y002180D01*
X002255Y002082D02*
X004788Y002082D01*
X004884Y001983D02*
X002508Y001983D01*
X002690Y001885D02*
X005199Y001885D01*
X005199Y001786D02*
X002789Y001786D01*
X002887Y001688D02*
X005199Y001688D01*
X005199Y001589D02*
X002986Y001589D01*
X003071Y001491D02*
X005199Y001491D01*
X005199Y001392D02*
X003112Y001392D01*
X003124Y001294D02*
X005190Y001294D01*
X005104Y001195D02*
X003124Y001195D01*
X003125Y001097D02*
X005063Y001097D01*
X005024Y000998D02*
X003194Y000998D01*
X003292Y000900D02*
X005024Y000900D01*
X005024Y000801D02*
X003391Y000801D01*
X003489Y000703D02*
X005053Y000703D01*
X004990Y000604D02*
X003588Y000604D01*
X005719Y002574D02*
X005779Y002574D01*
X005719Y002673D02*
X005877Y002673D01*
X005976Y002771D02*
X005719Y002771D01*
X005694Y002870D02*
X006074Y002870D01*
X003684Y003658D02*
X000550Y003658D01*
X000550Y003756D02*
X003586Y003756D01*
X003487Y003855D02*
X000550Y003855D01*
X000550Y003953D02*
X003389Y003953D01*
X003305Y004052D02*
X000550Y004052D01*
X000550Y004150D02*
X003305Y004150D01*
X003305Y004249D02*
X000550Y004249D01*
X000550Y004347D02*
X003305Y004347D01*
X003305Y004446D02*
X000550Y004446D01*
X000550Y004544D02*
X003305Y004544D01*
X003305Y004643D02*
X000550Y004643D01*
X000550Y004741D02*
X003305Y004741D01*
X003289Y004840D02*
X000564Y004840D01*
X000663Y004938D02*
X003191Y004938D01*
X003092Y005037D02*
X000761Y005037D01*
X000860Y005135D02*
X002994Y005135D01*
D22*
X006080Y003643D02*
X007242Y003643D01*
X007507Y003909D01*
X007507Y004303D01*
X007763Y004303D02*
X007763Y005464D01*
X007813Y005513D01*
X006651Y002659D02*
X006720Y002590D01*
X007252Y002590D01*
D23*
X007507Y002590D02*
X007507Y002137D01*
X007242Y001872D01*
X006750Y001872D01*
X006553Y001675D01*
X006553Y001039D01*
X006604Y000987D01*
X007604Y000887D02*
X007635Y000919D01*
X007635Y001872D01*
X007763Y002000D01*
X007763Y002590D01*
X008019Y002590D02*
X008019Y001980D01*
X008128Y001872D01*
X008521Y001872D01*
X008620Y001773D01*
X008620Y001003D01*
X008604Y000987D01*
X009604Y000887D02*
X009604Y001872D01*
X009309Y002167D01*
X008521Y002167D01*
X008324Y002364D01*
X008324Y003545D01*
X008019Y003850D01*
X008019Y004303D01*
X006080Y003643D02*
X005864Y003663D01*
D24*
X006651Y002659D03*
X004289Y005218D03*
D25*
X007458Y006380D02*
X007832Y006006D01*
X007832Y005533D01*
X007813Y005513D01*
X007458Y006380D02*
X007458Y006793D01*
M02*
